<svg width="45" height="24" viewBox="0 0 45 24" fill="none" xmlns="http://www.w3.org/2000/svg">
<path d="M12.8959 0.272474C12.8091 0.105187 12.6352 0 12.4452 0C12.2552 0 12.0813 0.105187 11.9944 0.272474L0.0562534 23.2678C-0.0247698 23.4236 -0.0178151 23.6097 0.0741845 23.7593C0.166267 23.9087 0.330242 23.9999 0.507035 23.9999H3.18482C3.37477 23.9999 3.54871 23.8946 3.6356 23.7275L12.4452 6.75859L21.2548 23.7275C21.3418 23.8946 21.5156 23.9999 21.7056 23.9999H24.3834C24.5601 23.9999 24.7241 23.9087 24.8163 23.7593C24.9082 23.6097 24.9151 23.4236 24.8342 23.2678L12.8959 0.272474Z" fill="#121212"/>
<path d="M44.7019 0.491984C44.7016 0.481275 44.6996 0.470897 44.6987 0.460188C44.6962 0.431047 44.6918 0.402739 44.6845 0.375259C44.6814 0.363469 44.6777 0.352096 44.6736 0.340555C44.664 0.312577 44.6519 0.286009 44.6377 0.260522C44.6341 0.254045 44.6326 0.246907 44.6287 0.240597C44.627 0.237774 44.6244 0.235865 44.6228 0.233125C44.6018 0.200581 44.5778 0.17036 44.55 0.143461C44.5446 0.138314 44.5384 0.13433 44.5328 0.129432C44.5093 0.108594 44.4841 0.0899955 44.4569 0.0737231C44.4467 0.0675795 44.4363 0.0622659 44.4256 0.0568695C44.4001 0.0439181 44.3737 0.0334592 44.346 0.024908C44.3354 0.0215871 44.3252 0.0177671 44.3144 0.0151105C44.2762 0.00606113 44.2369 0 44.1959 0H41.518C41.4746 0 41.4332 0.00705688 41.3931 0.0171855C41.3822 0.0198421 41.3721 0.0234124 41.3614 0.0268993C41.3299 0.037111 41.3 0.0499789 41.2716 0.0658359C41.2634 0.0704021 41.2549 0.0740548 41.2471 0.0790357C41.2126 0.100705 41.1811 0.125944 41.1529 0.155001C41.1472 0.160813 41.1427 0.167538 41.1374 0.173682C41.1146 0.199501 41.0949 0.227396 41.0779 0.257367C41.0748 0.262847 41.0701 0.266915 41.0671 0.272477L37.1457 7.8261L32.2576 17.2415L23.4481 0.272477C23.3612 0.105189 23.1873 0 22.9972 0H20.3194C20.1427 0 19.9787 0.0911588 19.8866 0.240597C19.7947 0.390202 19.7878 0.576418 19.8687 0.732166L31.807 23.7275C31.8938 23.8947 32.0677 24 32.2576 24C32.4477 24 32.6215 23.8947 32.7085 23.7275L41.011 7.7352V23.4977C41.011 23.7751 41.238 24 41.518 24H44.1959C44.476 24 44.7029 23.7751 44.7029 23.4977V0.502281C44.7029 0.498794 44.7019 0.495472 44.7019 0.491984Z" fill="#121212"/>
</svg>
